<svg width="12" height="12" viewBox="0 0 12 12" fill="none" xmlns="http://www.w3.org/2000/svg">
<path d="M12 2.65421C11.5486 2.85109 11.0712 2.98193 10.5825 3.04271C11.0975 2.73718 11.4826 2.25338 11.6648 1.68296C11.1825 1.96896 10.6549 2.17037 10.1047 2.27846C9.76743 1.9183 9.32959 1.6679 8.84812 1.55981C8.36664 1.45171 7.86379 1.49092 7.40488 1.67233C6.94598 1.85374 6.55224 2.16897 6.27482 2.57706C5.9974 2.98516 5.84912 3.46725 5.84925 3.96071C5.84925 4.15571 5.86575 4.34321 5.90625 4.52171C4.92756 4.47373 3.97002 4.21972 3.09623 3.7763C2.22243 3.33288 1.45207 2.71002 0.8355 1.94846C0.519614 2.48986 0.421957 3.13129 0.562412 3.74216C0.702868 4.35303 1.07088 4.8874 1.5915 5.23646C1.20207 5.22602 0.820855 5.1221 0.48 4.93346V4.96046C0.480652 5.52854 0.676999 6.07904 1.03599 6.51931C1.39498 6.95957 1.89469 7.26272 2.451 7.37771C2.24054 7.43318 2.02364 7.46042 1.806 7.45871C1.64969 7.46149 1.49354 7.44741 1.34025 7.41671C1.49921 7.90498 1.80562 8.33197 2.2173 8.63888C2.62897 8.94579 3.12567 9.11753 3.639 9.13046C2.7682 9.81149 1.69423 10.1809 0.58875 10.1797C0.387 10.1797 0.1935 10.1707 0 10.146C1.12491 10.8709 2.43576 11.2543 3.774 11.25C8.301 11.25 10.776 7.49996 10.776 4.24946C10.776 4.14071 10.7723 4.03571 10.767 3.93146C11.2522 3.5842 11.6701 3.15137 12 2.65421Z" fill="#5E5C6C"/>
</svg>
